HIERARCHY
ROOT Hips
{
  OFFSET 57.8838 95.319 338.509
  CHANNELS 6 Xposition Yposition Zposition Zrotation Xrotation Yrotation
  JOINT LeftUpLeg
  {
    OFFSET 8.64259 1.95398 -2.38835
    CHANNELS 3 Zrotation Xrotation Yrotation
    JOINT LeftLeg
    {
      OFFSET 43.7702 0 0
      CHANNELS 3 Zrotation Xrotation Yrotation
      JOINT LeftFoot
      {
        OFFSET 40.6238 0 0
        CHANNELS 3 Zrotation Xrotation Yrotation
        JOINT LeftToeBase
        {
          OFFSET 12.7242 0 0
          CHANNELS 3 Zrotation Xrotation Yrotation
          End Site
          {
            OFFSET 0 0 0
          }
        }
      }
    }
  }
  JOINT RightUpLeg
  {
    OFFSET -8.2249 1.95398 -2.59336
    CHANNELS 3 Zrotation Xrotation Yrotation
    JOINT RightLeg
    {
      OFFSET 43.5653 0 0
      CHANNELS 3 Zrotation Xrotation Yrotation
      JOINT RightFoot
      {
        OFFSET 40.6238 0 0
        CHANNELS 3 Zrotation Xrotation Yrotation
        JOINT RightToeBase
        {
          OFFSET 12.7242 0 0
          CHANNELS 3 Zrotation Xrotation Yrotation
          End Site
          {
            OFFSET 0 0 0
          }
        }
      }
    }
  }
  JOINT Spine
  {
    OFFSET 0.165834 0.87714 6.61349
    CHANNELS 3 Zrotation Xrotation Yrotation
    JOINT Spine1
    {
      OFFSET 7.38963 1.71661e-005 0
      CHANNELS 3 Zrotation Xrotation Yrotation
      JOINT Spine2
      {
        OFFSET 11.9445 1.14441e-005 0
        CHANNELS 3 Zrotation Xrotation Yrotation
        JOINT Spine3
        {
          OFFSET 14.7254 4.19617e-005 0
          CHANNELS 3 Zrotation Xrotation Yrotation
          JOINT Spine4
          {
            OFFSET 10.9679 0 0
            CHANNELS 3 Zrotation Xrotation Yrotation
            JOINT RightShoulder
            {
              OFFSET 2.46616 -1.6653 3.69651
              CHANNELS 3 Zrotation Xrotation Yrotation
              JOINT RightArm
              {
                OFFSET 13.0012 0 0
                CHANNELS 3 Zrotation Xrotation Yrotation
                JOINT RightForeArm
                {
                  OFFSET 28.7848 1.62311e-005 0
                  CHANNELS 3 Zrotation Xrotation Yrotation
                  JOINT RightHand
                  {
                    OFFSET 26.5688 1.62095e-005 0
                    CHANNELS 3 Zrotation Xrotation Yrotation
                    End Site
                    {
                      OFFSET 0 0 0
                    }
                  }
                }
              }
            }
            JOINT LeftShoulder
            {
              OFFSET 2.38034 -1.29275 -3.7523
              CHANNELS 3 Zrotation Xrotation Yrotation
              JOINT LeftArm
              {
                OFFSET 16.3182 6.07031e-005 0
                CHANNELS 3 Zrotation Xrotation Yrotation
                JOINT LeftForeArm
                {
                  OFFSET 27.0901 0 0
                  CHANNELS 3 Zrotation Xrotation Yrotation
                  JOINT LeftHand
                  {
                    OFFSET 24.5451 1.51738e-005 0
                    CHANNELS 3 Zrotation Xrotation Yrotation
                    End Site
                    {
                      OFFSET 0 0 0
                    }
                  }
                }
              }
            }
            JOINT Neck
            {
              OFFSET 5.0226 -0.0266342 0
              CHANNELS 3 Zrotation Xrotation Yrotation
              JOINT Head
              {
                OFFSET 6.69364 2.86102e-005 0
                CHANNELS 3 Zrotation Xrotation Yrotation
                End Site
                {
                  OFFSET 0 0 0
                }
              }
            }
          }
        }
      }
    }
  }
}
MOTION
Frames:	6
Frame Time:	0.0416667
-311.239 74.0821 327.045 122.545 62.3127 57.4454 -179.506 27.8267 67.4482 -76.2007 29.3126 6.4493 64.2311 29.9404 32.3568 125.423 43.1326 -3.17618 -143.338 -34.7474 163.236 -150.706 11.0342 -71.4456 -46.6178 17.4465 70.2695 19.5885 26.8117 -33.2307 -1.82119 5.47907 -89.8956 15.937 -3.54317 0.781756 4.27055 -3.50533 0.937109 -18.3034 -3.6141 -0.320663 1.70925 -3.61411 -0.320666 116.294 -5.28822 -36.508 74.9561 -55.0511 11.0099 -1.12977 9.49222 -72.0062 9.3011 7.65838 70.3864 -55.7441 -35.427 136.201 116.959 -13.3192 -135.532 -140.651 3.96124 -78.1908 41.286 -3.76917 -13.5378 31.2867 20.1664 -5.04225 -116.082 6.97469 13.3696 
-311.524 73.9973 327.309 121.536 62.3966 59.0072 -179.519 28.5646 68.0803 -76.5857 29.4272 6.47872 64.2642 30.9893 32.801 126.752 43.2611 -3.91218 -143.964 -34.4829 163.204 -149.41 11.1232 -72.1998 -47.5824 16.1641 69.4098 19.594 26.7303 -33.1412 -1.80838 5.45051 -89.9262 15.9931 -3.53291 0.72103 4.32672 -3.49776 0.875997 -18.2469 -3.58608 -0.375481 1.76571 -3.58607 -0.375485 116.335 -5.52843 -36.6516 75.4197 -55.018 11.584 -0.968113 9.60011 -71.8909 9.64634 7.82937 69.7028 -55.9294 -34.8129 136.189 117.544 -14.0036 -135.388 -140.766 4.32287 -78.175 40.8289 -3.63731 -13.3135 31.3344 19.5919 -5.95893 -116.334 5.67376 13.8995 
-312.39 73.7321 328.108 118.383 62.5802 63.8608 -179.626 30.8812 70.0612 -77.781 29.7722 6.58436 64.2943 34.0982 34.1278 131.085 43.2893 -6.61132 -145.719 -33.7081 163.166 -145.195 11.2488 -74.5723 -50.56 12.3506 66.4414 19.6154 26.4719 -32.8681 -1.7699 5.36304 -90.0266 16.1649 -3.50633 0.52217 4.49855 -3.47996 0.676173 -18.0742 -3.50095 -0.55709 1.93848 -3.50096 -0.5571 116.469 -6.27033 -37.0634 76.7282 -54.9396 13.2349 -0.504247 9.92064 -71.5567 10.7473 8.35258 67.6216 -56.4607 -32.9984 136.181 119.281 -16.0142 -134.889 -141.098 5.32064 -78.086 39.3937 -3.2437 -12.6241 31.4068 17.8989 -8.59025 -116.992 1.76961 15.4523 
-313.74 73.2967 329.36 113.251 62.6386 71.6547 179.958 34.7273 73.3075 -79.7131 30.3103 6.77705 64.1104 38.706 36.1625 138.187 42.1035 -11.7887 -148.06 -32.6082 163.193 -137.727 10.8999 -78.4647 -55.4751 6.69293 60.7047 19.6686 26.0215 -32.4385 -1.71136 5.22196 -90.1988 16.442 -3.47651 0.182668 4.77562 -3.4651 0.335674 -17.7953 -3.37049 -0.871837 2.2173 -3.3705 -0.871837 116.696 -7.44861 -37.6474 78.5285 -54.8893 15.6018 0.146467 10.4027 -71.0834 12.6161 9.16518 64.3478 -57.2142 -30.2943 136.242 121.923 -18.9765 -133.938 -141.552 6.62678 -77.8582 37.0035 -2.65458 -11.5278 31.3184 15.4022 -12.2862 -117.717 -4.19387 17.755 
-315.488 72.6978 330.984 106.555 62.3446 81.5992 178.847 40.0488 77.6559 -82.2668 31.0188 7.02569 63.3851 44.1589 38.8061 146.354 38.4061 -18.8204 -150.363 -31.4154 163.21 -126.585 9.09501 -83.4759 -62.6545 -0.0217371 51.5284 19.7969 25.3057 -31.8893 -1.65019 5.0276 -90.4195 16.8237 -3.46671 -0.247808 5.1574 -3.47425 -0.0948116 -17.411 -3.23179 -1.27932 2.60168 -3.2318 -1.27932 116.991 -8.96876 -38.3384 80.5683 -54.9533 18.4571 0.870612 11.0003 -70.5698 15.2776 10.1664 60.0544 -58.0963 -26.9692 136.412 125.299 -22.5478 -132.443 -141.975 7.97082 -77.4876 33.6269 -1.95164 -10.0917 30.8606 12.406 -16.443 -118.134 -11.6978 20.6363 
-317.572 71.9184 332.907 99.0843 62.1762 92.5363 176.085 46.6958 82.9154 -85.4326 31.9489 7.47246 61.6211 49.6784 42.0858 152.687 32.0615 -25.7655 -151.108 -29.6113 163.768 -117.476 4.37392 -88.0727 -71.0746 -7.26574 45.5923 20.1047 24.1559 -31.3369 -1.67819 4.78534 -90.6528 17.3012 -3.6403 -0.667816 5.63529 -3.66614 -0.506753 -16.9331 -3.27114 -1.73206 3.07956 -3.27114 -1.73206 117.299 -10.6831 -39.1188 82.7587 -55.2049 21.7698 1.57417 11.6751 -70.1453 18.6869 11.1942 54.93 -59.0593 -23.2364 136.688 129.272 -26.4228 -130.393 -142.143 9.17814 -77.0591 29.2373 -1.24122 -8.4319 29.8329 9.18521 -20.5664 -117.898 -20.2228 24.0425 
